<svg width="29" height="29" viewBox="0 0 29 29" fill="none" xmlns="http://www.w3.org/2000/svg">
<path d="M17.0625 26.375C17.6875 25.75 17.625 24.8125 17.0625 24.1875L9.5 17H27.5C28.3125 17 29 16.375 29 15.5V13.5C29 12.6875 28.3125 12 27.5 12H9.5L17.0625 4.875C17.625 4.25 17.6875 3.3125 17.0625 2.6875L15.6875 1.3125C15.125 0.75 14.125 0.75 13.5625 1.3125L1.4375 13.5C0.8125 14.0625 0.8125 15 1.4375 15.5625L13.5625 27.75C14.125 28.3125 15.0625 28.3125 15.6875 27.75L17.0625 26.375Z" fill="#0F214F"/>
</svg>
