<svg width="16" height="16" viewBox="0 0 16 16" fill="none" xmlns="http://www.w3.org/2000/svg">
<path d="M8 0.25C3.71875 0.25 0.25 3.71875 0.25 8C0.25 12.2812 3.71875 15.75 8 15.75C12.2812 15.75 15.75 12.2812 15.75 8C15.75 3.71875 12.2812 0.25 8 0.25ZM8 14.75C4.28125 14.75 1.25 11.75 1.25 8C1.25 4.3125 4.25 1.25 8 1.25C11.6875 1.25 14.75 4.28125 14.75 8C14.75 11.7188 11.7188 14.75 8 14.75ZM10.9375 5.84375C11.0938 5.6875 11.0938 5.46875 10.9375 5.3125L10.6875 5.0625C10.5312 4.90625 10.3125 4.90625 10.1562 5.0625L8 7.21875L5.8125 5.0625C5.6875 4.90625 5.4375 4.90625 5.28125 5.0625L5.03125 5.3125C4.875 5.46875 4.875 5.6875 5.03125 5.84375L7.1875 8L5.03125 10.1875C4.875 10.3125 4.875 10.5625 5.03125 10.7188L5.28125 10.9688C5.4375 11.125 5.6875 11.125 5.8125 10.9688L8 8.8125L10.1562 10.9688C10.3125 11.125 10.5312 11.125 10.6875 10.9688L10.9375 10.7188C11.0938 10.5625 11.0938 10.3125 10.9375 10.1875L8.78125 8L10.9375 5.84375Z" fill="#F34C41"/>
</svg>
